<svg version="1" xmlns="http://www.w3.org/2000/svg" width="341.333" height="341.333" viewBox="0 0 256.000000 256.000000"><path d="M60 57.6c-5.8 1.1-17.1 4.8-17.9 5.8-.7.8 1 5.1 5 13 4.9 9.5 6.4 11.6 7.7 11 7.5-3.1 20.5-3.7 28-1.3 16.3 5.3 29 19.6 30.8 35 .3 3 .8 5.6.9 5.9.2.3-.2 3.4-.7 7-4 26.7-31.4 43.9-56.5 35.4-2.5-.9-4.9-1.2-5.3-.7-.4.4-2.5 4.2-4.6 8.3-2 4.1-4.6 8.7-5.6 10.2-2.6 3.7-2.3 4.6 2 6.4 11.8 4.9 29.3 6.5 41.7 3.8 14.1-3.2 26.6-10.3 36.6-20.7l5.8-6.1 6.3 6.3c7.7 7.7 12.6 11.2 22.1 15.7 15.7 7.4 36.1 8.3 52.7 2.2 3-1.2 5.7-2.2 5.9-2.4.1-.1-2.5-5.7-6-12.4-4.9-9.3-6.7-11.9-7.9-11.4-3.9 1.7-13.3 3.1-18.6 2.8-26-1.7-44.3-25.3-40-51.4 2.8-16.5 18-31.7 34.8-34.8 6.1-1.2 15.6-.6 21 1.3 2.3.8 4.6 1.1 4.9.7.4-.4 2.8-4.8 5.4-9.7 2.6-5 5.4-10 6.2-11.3 1.3-2.2 1.2-2.3-2.3-3.8-12.9-5.4-33.1-6.7-45.9-2.9-12.8 3.7-25.9 12-34.3 21.7l-3.9 4.6-5.5-5.7c-9.8-10.3-21.2-17.3-33.7-20.7-5.6-1.5-24.4-2.7-29.1-1.8zM32.3 68.6c-5.7 3.6-6.2 4.7-3.7 7.5 1.5 1.7 1.9 1.6 6.5-1.6 5.3-3.6 5.4-3.8 3.6-7.1-1.2-2.2-1.2-2.2-6.4 1.2z"/><path d="M36.7 76.7c-2 1.4-3.7 3-3.7 3.5 0 .4 1 1.9 2.1 3.3 2.3 2.6 3 2.5 7.8-1.3 2.2-1.8 2.3-2.1 1-5.1-1.7-3.8-2.4-3.8-7.2-.4zM212.5 77.1c-.9 1.7-1.5 3.2-1.3 3.3.2.1 1.9 1.4 3.9 2.8l3.6 2.7 2.8-2.9 2.7-2.8-4.2-3.1c-2.4-1.7-4.7-3.1-5.1-3.1-.5 0-1.6 1.4-2.4 3.1zM18.7 80.1l-4.6 5.2 2.6 2 2.5 2 3.9-4.4c4.4-5 4.6-5.9 2-8.3-1.8-1.6-2.1-1.5-6.4 3.5zM230.7 77.5c-1.8 2.5-1.8 2.5 2 7 2 2.5 4 4.5 4.4 4.5.4 0 1.7-.8 2.9-1.8l2.2-1.8-4.8-5.2-4.9-5.2-1.8 2.5zM27 84.7c-1.2 1.6-2.9 3.5-3.7 4.4-1.2 1.5-1.1 1.9 1.7 3.9l3 2.2 3-3.2c3.6-3.9 3.7-5 .7-7.8L29.4 82 27 84.7zM43.4 85.2c-1.6 1.2-3.1 2.3-3.3 2.5-.8.5 3 5.3 4.2 5.3.6-.1 2.2-.9 3.5-2 2.2-1.8 2.2-2 .7-5-.8-1.6-1.7-3-1.9-3-.2 0-1.6 1-3.2 2.2zM223.4 85.5c-1.6 2.5-1.6 2.7.7 5.3 1.3 1.5 2.7 3.1 3 3.5.6.8 2.3.2 5.8-2.2 1.2-.7.8-1.7-1.8-5-3.8-4.8-5.4-5.1-7.7-1.6zM9.1 93.4c-3.8 6.5-3.8 7.2-.4 8.3 2.6.9 2.9.6 5.5-4.1 1.5-2.8 2.7-5.4 2.8-5.7 0-.4-1.1-1.4-2.4-2.3-2.4-1.5-2.5-1.5-5.5 3.8zM240.6 90.5c-1.8 1.4-1.8 1.6 1 7 1.8 3.5 3.4 5.3 4.2 5 .8-.3 2-.5 2.8-.5 2.1 0 1.7-2.7-1.3-8.1-3-5.2-3.7-5.6-6.7-3.4zM33.7 93.3C32.2 95 31 96.7 31 97c0 .3 1.3 1.3 2.9 2.3 2.7 1.6 2.9 1.6 5-.6 2.7-2.9 2.6-3.8-.2-6.5l-2.2-2.1-2.8 3.2zM26 103.9l-1.9 3.9 3.2 1.1c2.8 1 3.3.9 4.9-1.1 1-1.3 1.8-2.8 1.8-3.4 0-1.1-4.2-4.4-5.4-4.4-.3 0-1.5 1.8-2.6 3.9zM224.3 101.9c-2.8 2.3-2.8 2.9-.4 6 1.7 2.3 2.1 2.3 5 1.2l3.1-1.3-2.2-3.9c-1.2-2.2-2.4-3.9-2.7-3.9-.3.1-1.6.9-2.8 1.9zM2.5 109.2c-2.1 7.3-2 8.3 1.4 8.5 2.6.2 3-.2 4.1-4.5 2.1-7.7 2.1-7.9-.3-8.6-3.5-.9-3.5-.9-5.2 4.6zM12.6 108.1c-.7 2.1-2.6 9.3-2.6 10 0 .3 1.7.6 3.9.7 3.5.2 3.9 0 4.4-2.5.4-1.5.9-3.8 1.3-4.9.4-1.5 0-2.3-1.3-2.6-1-.3-2.6-.9-3.5-1.3-1.1-.4-2-.2-2.2.6zM239.2 108.6c-3.1 1.3-3.3 1.6-2.7 4.6 1.2 6.1 1.6 7 3.2 6.4.8-.3 2.4-.6 3.5-.6 1.9 0 2-.4 1.4-4.6-.9-6.9-1.5-7.5-5.4-5.8zM228.9 112.2c-2.4 1-2.5 1.3-1.5 5 1 3.6 1.2 3.8 4.1 3.2 1.6-.3 3.1-.8 3.3-.9.6-.5-1.9-8.5-2.6-8.4-.4.1-1.9.6-3.3 1.1zM.5 120.8c-.3.3-.5 3.4-.5 6.9v6.4l3.2-.3 3.3-.3.1-6.2c0-6-.1-6.1-2.8-6.5-1.5-.3-3-.2-3.3 0zM9.9 121.5c-.1 0-.3 2.6-.4 5.7l-.3 5.8H17v-10.8l-3.5-.4c-1.9-.2-3.6-.4-3.6-.3zM250.3 121.7c-.9.3-1.3 2.6-1.3 6.7v6.2l3.5.2 3.5.3V128c0-6.6-.1-7-2.2-6.9-1.3 0-2.9.3-3.5.6zM239.9 122.7c-1.2.3-1.6 1.6-1.6 5.3 0 3.9.3 5 1.6 5.1.9.1 2.6.3 3.9.4 2 .2 2.2-.2 2.2-5.5 0-6.1-.5-6.5-6.1-5.3zM20 127.4c0 4.6 0 4.6 3.6 4.6h3.5l-.3-4.3c-.3-3.9-.5-4.2-3.5-4.5-3.3-.3-3.3-.3-3.3 4.2zM21 137.6c0 3.2 1.7 6.4 3.3 6.4.7 0 2.1-.6 3.1-1.3 1.4-1 1.7-2.1 1.1-4.5-.6-2.8-1-3.2-4.1-3.2-3 0-3.4.3-3.4 2.6zM227.4 138.6c-.7 3.8.4 5.4 3.8 5.4 1.2 0 1.9-1.1 2.4-3.5.8-4.4.5-4.9-2.8-5.3-2.4-.3-2.8.1-3.4 3.4zM236.7 140.6l-1.5 4.9 2.7 1.2c4 1.9 4.7 1.6 5.9-2.6 1.5-5 1.5-7.1 0-7.1-.7 0-2.3-.3-3.5-.6-1.9-.5-2.4 0-3.6 4.2zM1 139.1c0 .8.6 3.7 1.4 6.2.7 2.5 1.1 4.8.8 5.1-.9 1 2.8.7 4.8-.4 1.5-.8 1.7-1.6 1-4.2-.4-1.8-1.1-4.5-1.4-6.1-.5-2.3-1.1-2.7-3.6-2.5-2 .2-3 .8-3 1.9zM223.2 149.2c-1.1 3-1 3.4 1 5 2.7 2 3.1 1.8 5.3-2.8 1.4-3 1.5-3.8.4-4.5-2.9-1.8-5.4-1-6.7 2.3zM17 150.1c-3.5 1.4-3.5 1.3-.5 6.8l2.8 5 2.8-2c3.4-2.4 3.4-2.7 1.2-7.3-1.9-3.8-2.5-4-6.3-2.5zM231.4 153.4l-2.2 4.3 2.2 1.4c1.1.8 2.6 1.8 3.3 2.2.8.5 2.1-.9 3.8-4.2 1.4-2.8 2.5-5.2 2.5-5.5 0-.4-5.9-2.6-6.9-2.6-.3.1-1.6 2-2.7 4.4zM6.7 153.8c-1.6.7-1.5 1.3 1.3 7l3.2 6.2 2.8-1.6 2.8-1.7-2.7-5.3c-2.6-5.3-3.7-6-7.4-4.6zM240.9 158.4l-2.7 5.4 2.8 2.1 2.8 2 1.4-2.2c5.7-9.1 5.8-11 .8-12.1-2.2-.5-2.8.1-5.1 4.8zM32.3 156.8l-2.2 1.7 3 3.4 3 3.5 2.5-2.9 2.4-2.8-2.2-2.4c-2.6-2.7-3.6-2.8-6.5-.5zM217.2 157.3c-2.7 2.9-2.7 3.9-.3 6.1 1.9 1.7 2.1 1.6 5-1.4l3.1-3.2-2.4-1.9c-3-2.4-2.8-2.4-5.4.4zM224.2 163.7c-1.8 2-3.2 3.9-3.2 4.3 0 .4 1.2 1.7 2.6 3.1l2.6 2.4 3.4-4c1.8-2.2 3.4-4.3 3.4-4.7 0-.4-1.3-1.6-2.8-2.7l-2.8-2-3.2 3.6zM40.9 164.6l-2.4 2.6 3 2.4c3.8 3 4.9 3 6.3-.1 1.6-3.6 1.6-3.9-1.7-5.8-2.7-1.6-2.9-1.6-5.2.9zM208.2 164.8c-2 1.5-2.2 2.2-1.3 4.5 1.3 3.2 1.4 3.3 5.7.6 4-2.4 3.9-2.3 1.7-4.9-2.1-2.4-3.1-2.5-6.1-.2zM231.7 171.4l-3.7 4.5 2.3 2.7 2.3 2.7 4.7-5.4 4.7-5.4-2.2-1.7c-3.3-2.5-4-2.3-8.1 2.6zM213.8 172.6L210 175l1.7 3.5 1.6 3.4 3.9-2.1c5.7-3.2 6.1-4.1 3.7-7.2-2.5-3.1-2.4-3.1-7.1 0zM27.2 180.3l-2.1 2.2 5.6 3.9c5.3 3.6 5.8 3.7 7 2 2.1-2.9 1.6-4.1-3.3-7.3-2.5-1.7-4.6-3.1-4.8-3.1-.1 0-1.2 1-2.4 2.3zM221 180.6c-1.9 1.4-4.1 2.9-4.8 3.3-1.1.6-1.1 1.3-.1 3.4 1.6 3.5 3.4 3.4 9.1-.8l4.8-3.5-2.2-2.5c-2.6-3-2.4-3-6.8.1z"/></svg>